<?xml version="1.0" encoding="utf-8"?>
<!-- Generator: Adobe Illustrator 22.0.1, SVG Export Plug-In . SVG Version: 6.00 Build 0)  -->
<svg version="1.1" id="Layer_1" xmlns="http://www.w3.org/2000/svg" xmlns:xlink="http://www.w3.org/1999/xlink" x="0px" y="0px"
	 viewBox="0 0 200 62" style="enable-background:new 0 0 200 62;" xml:space="preserve">
<style type="text/css">
	.st0{fill:#DEDEDE;}
</style>
<title>Page 1</title>
<desc>Created with Sketch.</desc>
<g id="Symbols">
	<g id="logo-white" transform="translate(0.000000, -1.000000)">
		<g id="Page-1" transform="translate(0.000000, 1.000000)">
			<polygon id="Fill-1" class="st0" points="32.5,22.4 34.2,22.4 34.2,20.7 32.5,20.7 			"/>
			<polygon id="Fill-2" class="st0" points="32.5,37.8 34.2,37.8 34.2,24.1 32.5,24.1 			"/>
			<g id="Group-25" transform="translate(0.000000, 0.028916)">
				<path id="Fill-3" class="st0" d="M37.6,20.7h1.7v3.4h6.8v1.7h-6.8v8.5c0,1,0.7,1.7,1.7,1.7h5.1v1.7H41c-1.8,0-3.4-1.4-3.4-3.4
					v-8.5H35v-1.7h2.6V20.7z"/>
				<path id="Fill-5" class="st0" d="M28.8,29.2H17.4c0-1.3,0.3-2.1,1-2.6c0.4-0.3,0.9-0.6,1.6-0.7c0.7-0.2,1.7-0.2,3.1-0.2
					c1.3,0,2.4,0,3.1,0.2c0.7,0.1,1.3,0.3,1.6,0.7C28.5,27.1,28.8,27.9,28.8,29.2 M17.4,30.9h13.4c0-1.5-0.1-2.6-0.3-3.4
					c-0.2-0.7-0.5-1.4-0.9-2c-0.6-0.7-1.3-1.1-2.2-1.3c-0.9-0.2-2.3-0.3-4.3-0.3c-2,0-3.5,0.1-4.4,0.3c-0.9,0.2-1.6,0.7-2.1,1.3
					c-0.5,0.6-0.8,1.2-0.9,2c-0.2,0.7-0.3,1.9-0.3,3.4c0,1.5,0.1,2.6,0.3,3.3c0.1,0.7,0.4,1.4,0.9,2c0.5,0.7,1.2,1.1,2.1,1.3
					c0.9,0.3,2.3,0.3,4.4,0.3c2,0,3.5-0.1,4.3-0.3c0.9-0.2,1.6-0.7,2.2-1.3c0.3-0.4,0.6-1,0.8-1.5h-2c-0.1,0.2-0.3,0.3-0.4,0.5
					c-0.4,0.3-1,0.6-1.6,0.7c-0.7,0.1-1.8,0.2-3.1,0.2c-1.4,0-2.4,0-3.1-0.2c-0.7-0.1-1.3-0.4-1.6-0.7c-0.5-0.4-0.8-1.2-0.9-2.2
					C17.4,32.4,17.4,31.6,17.4,30.9"/>
				<path id="Fill-7" class="st0" d="M30.8,61.7c17,0,30.8-13.8,30.8-30.7c0-17-13.8-30.8-30.8-30.8c-5.6,0-10.8,1.5-15.4,4.1
					l1.7,2.9c4-2.3,8.7-3.6,13.7-3.6c15.1,0,27.3,12.2,27.3,27.3c0,15.1-12.2,27.3-27.3,27.3S3.4,46,3.4,30.9H0
					C0,47.9,13.8,61.7,30.8,61.7"/>
				<path id="Fill-10" class="st0" d="M30.8,54.8c8.9,0,16.6-4.8,20.7-12l-3-1.7c-3.6,6.1-10.2,10.2-17.7,10.2
					c-11.3,0-20.5-9.2-20.5-20.5c0-11.3,9.2-20.5,20.5-20.5c7.6,0,14.2,4.1,17.7,10.2l3-1.7C47.3,11.8,39.6,7,30.8,7
					C17.6,7,6.9,17.7,6.9,30.9C6.9,44.1,17.6,54.8,30.8,54.8"/>
				<path id="Fill-12" class="st0" d="M83.9,33.1h1.8c0,1.2-0.1,2.1-0.2,2.6c-0.2,1-0.9,1.6-2,1.9c-0.9,0.2-2.6,0.3-4.9,0.3
					c-3.1,0-5.1-0.1-6.2-0.3c-1-0.2-1.7-0.7-2.1-1.6c-0.4-0.9-0.5-2.4-0.5-4.7c0-2.2,0.1-3.8,0.4-4.8c0.3-1.2,1.1-1.8,2.5-2
					c1.3-0.2,3.2-0.3,5.6-0.3c2.4,0,4.1,0.1,5.1,0.4c0.5,0.1,0.9,0.3,1.3,0.7c0.4,0.3,0.6,0.7,0.7,1.1c0.1,0.4,0.2,1.2,0.2,2.4h-1.7
					c0-0.2,0-0.4,0-0.5c0-0.7-0.1-1.1-0.2-1.4c-0.1-0.3-0.4-0.5-0.7-0.6c-0.7-0.3-2.2-0.4-4.7-0.4c-1.8,0-3.1,0-4,0.1
					c-0.9,0.1-1.5,0.3-1.8,0.5c-0.3,0.2-0.5,0.7-0.6,1.3c-0.1,0.7-0.2,1.6-0.2,2.8c0,0.6,0,1.3,0.1,2.2c0,0.9,0.1,1.5,0.1,1.8
					c0.1,0.5,0.2,0.9,0.5,1.1c0.3,0.2,0.7,0.4,1.2,0.4c1,0.1,2.5,0.2,4.4,0.2c0.6,0,1.4,0,2.3-0.1c0.9,0,1.6-0.1,1.8-0.1
					c0.5-0.1,0.9-0.2,1.1-0.3c0.2-0.1,0.4-0.3,0.5-0.6C83.9,34.8,83.9,34.2,83.9,33.1"/>
				<polygon id="Fill-14" class="st0" points="87.6,37.8 89.1,37.8 89.1,24.1 87.6,24.1 				"/>
				<path id="Fill-16" class="st0" d="M91.1,25.9h1.5v-1.8h-1.5V25.9z M91.1,37.8h1.5v-9.5h-1.5V37.8z"/>
				<path id="Fill-17" class="st0" d="M94.8,28.3h1.5v1.3c0.5-0.6,1-0.9,1.4-1.1c0.5-0.2,1.3-0.3,2.5-0.3c1.6,0,2.7,0.1,3.3,0.3
					c0.7,0.2,1.2,0.7,1.6,1.3c0.3-0.6,0.8-1.1,1.4-1.3c0.6-0.2,1.6-0.4,3-0.4c1.3,0,2.3,0.1,2.9,0.2c0.6,0.2,1.2,0.5,1.6,0.9
					c0.3,0.3,0.5,0.7,0.6,1.2c0.1,0.4,0.1,1.2,0.1,2.3v5h-1.5v-5.3c0-1.2-0.2-1.9-0.5-2.3c-0.5-0.5-1.5-0.7-3.2-0.7
					c-1,0-1.7,0.1-2.2,0.2s-0.9,0.3-1.1,0.6c-0.3,0.3-0.4,0.7-0.5,1.2c-0.1,0.5-0.1,1.3-0.1,2.5v3.7H104v-5.3c0-0.7,0-1.2-0.1-1.5
					c-0.1-0.3-0.2-0.6-0.4-0.8c-0.5-0.5-1.6-0.7-3.2-0.7c-1,0-1.7,0.1-2.2,0.2c-0.5,0.1-0.9,0.4-1.2,0.7c-0.2,0.3-0.4,0.6-0.5,1.1
					c-0.1,0.5-0.1,1.3-0.1,2.6v3.7h-1.5V28.3"/>
				<path id="Fill-18" class="st0" d="M118,31.1h-1.6c0-0.2,0-0.3,0-0.4c0-1,0.4-1.7,1.1-2c0.7-0.4,2.1-0.5,4.2-0.5
					c1.6,0,2.8,0.1,3.5,0.2c0.7,0.1,1.3,0.4,1.7,0.8c0.3,0.3,0.6,0.7,0.7,1.2c0.1,0.5,0.1,1.2,0.1,2.4v5h-1.5l0-1.1h-0.1
					c-0.4,0.5-0.8,0.9-1.3,1c-0.5,0.2-1.5,0.2-3,0.2c-1.7,0-2.8,0-3.5-0.1c-0.6-0.1-1.1-0.2-1.5-0.5c-0.3-0.2-0.6-0.5-0.7-0.9
					c-0.1-0.3-0.2-0.8-0.2-1.4c0-0.7,0.1-1.3,0.3-1.7c0.2-0.4,0.5-0.7,1-0.9c0.5-0.2,1.7-0.3,3.6-0.3c1.9,0,3.2,0.1,3.8,0.2
					c0.6,0.1,1.1,0.4,1.4,0.8h0.1v-1c0-0.8-0.1-1.4-0.4-1.8c-0.3-0.3-0.7-0.5-1.2-0.7c-0.5-0.1-1.4-0.2-2.7-0.2
					c-1.6,0-2.7,0.1-3.1,0.3c-0.5,0.2-0.7,0.6-0.7,1.2V31.1z M121.8,33.4c-1.2,0-2.1,0-2.6,0.1c-0.5,0-0.8,0.1-1.1,0.2
					c-0.4,0.2-0.6,0.7-0.6,1.3c0,0.6,0.2,1,0.7,1.3c0.4,0.2,1.7,0.3,3.8,0.3c1.6,0,2.6-0.1,3.2-0.3c0.5-0.2,0.8-0.6,0.8-1.3
					c0-0.6-0.3-1-0.9-1.2S123.5,33.4,121.8,33.4L121.8,33.4z"/>
				<path id="Fill-19" class="st0" d="M130.5,25.9h1.5v2.4h6.6v1.3H132v4.1c0,0.9,0,1.5,0.1,1.7s0.1,0.4,0.3,0.6
					c0.2,0.2,0.5,0.4,0.8,0.5c0.4,0.1,0.9,0.1,1.6,0.1c0.7,0,1.2,0,1.5-0.1c0.3-0.1,0.5-0.3,0.7-0.5c0.1-0.2,0.2-0.4,0.2-0.6
					c0-0.2,0.1-0.6,0.1-1.2v-0.6h1.5v0.6c0,0.7,0,1.3-0.1,1.7c-0.1,0.4-0.2,0.7-0.4,1c-0.3,0.4-0.7,0.7-1.3,0.9
					c-0.6,0.2-1.3,0.3-2.3,0.3c-1,0-1.8-0.1-2.4-0.3c-0.6-0.2-1-0.4-1.3-0.8c-0.2-0.3-0.3-0.6-0.4-1c-0.1-0.4-0.1-0.9-0.1-1.7v-4.6
					h-2.3v-1.3h2.3V25.9"/>
				<path id="Fill-20" class="st0" d="M150.4,34.8h1.6c0,1.1-0.4,1.9-1.2,2.4c-0.8,0.4-2.1,0.7-4,0.7c-1.6,0-2.8-0.1-3.6-0.2
					c-0.8-0.1-1.4-0.3-1.9-0.6c-1-0.7-1.4-2-1.4-4c0-1.4,0.2-2.5,0.6-3.2c0.4-0.7,0.9-1.1,1.7-1.4c0.7-0.2,1.9-0.4,3.7-0.4
					c1.6,0,2.8,0.1,3.5,0.3c0.7,0.2,1.3,0.5,1.7,1c0.4,0.4,0.6,0.9,0.7,1.4c0.1,0.5,0.2,1.4,0.2,2.5h-10.6c0,1.2,0.3,2,0.7,2.4
					c0.3,0.3,0.7,0.5,1.4,0.6c0.6,0.1,1.7,0.2,3.1,0.2c1.1,0,1.9,0,2.4-0.1c0.5-0.1,0.9-0.3,1.1-0.6
					C150.2,35.6,150.3,35.3,150.4,34.8 M150.3,32.1c0-0.9-0.3-1.6-0.7-1.9c-0.3-0.2-0.8-0.4-1.3-0.5c-0.6-0.1-1.4-0.1-2.5-0.1
					c-1,0-1.7,0-2.2,0.1c-0.5,0.1-0.9,0.2-1.2,0.5c-0.5,0.4-0.7,1-0.8,2H150.3"/>
				<polygon id="Fill-21" class="st0" points="153,33.8 161.1,33.8 161.1,32 153,32 				"/>
				<polygon id="Fill-22" class="st0" points="162.1,24.1 163.9,24.1 163.9,30 166.3,30 175.1,24.1 178.3,24.1 168.2,30.8 
					178.9,37.8 175.6,37.8 166.3,31.6 163.9,31.6 163.9,37.8 162.1,37.8 				"/>
				<polygon id="Fill-23" class="st0" points="179.7,37.8 181.6,37.8 181.6,24.1 179.7,24.1 				"/>
				<path id="Fill-24" class="st0" d="M197.5,33.1h1.8c0,1.2-0.1,2.1-0.2,2.6c-0.2,1-0.9,1.6-2,1.9c-0.9,0.2-2.6,0.3-4.9,0.3
					c-3.1,0-5.1-0.1-6.2-0.3c-1-0.2-1.7-0.7-2.1-1.6c-0.4-0.9-0.5-2.4-0.5-4.7c0-2.2,0.1-3.8,0.4-4.8c0.3-1.2,1.1-1.8,2.5-2
					c1.3-0.2,3.2-0.3,5.6-0.3c2.4,0,4.1,0.1,5.1,0.4c0.5,0.1,0.9,0.3,1.3,0.7c0.4,0.3,0.6,0.7,0.7,1.1c0.1,0.4,0.2,1.2,0.2,2.4h-1.7
					c0-0.2,0-0.4,0-0.5c0-0.7-0.1-1.1-0.2-1.4c-0.1-0.3-0.4-0.5-0.7-0.6c-0.7-0.3-2.2-0.4-4.7-0.4c-1.8,0-3.1,0-4,0.1
					c-0.9,0.1-1.5,0.3-1.8,0.5c-0.3,0.2-0.5,0.7-0.6,1.3c-0.1,0.7-0.2,1.6-0.2,2.8c0,0.6,0,1.3,0.1,2.2c0,0.9,0.1,1.5,0.1,1.8
					c0.1,0.5,0.2,0.9,0.5,1.1c0.3,0.2,0.7,0.4,1.2,0.4c1,0.1,2.5,0.2,4.4,0.2c0.6,0,1.4,0,2.3-0.1c1,0,1.6-0.1,1.8-0.1
					c0.5-0.1,0.9-0.2,1.1-0.3c0.2-0.1,0.4-0.3,0.5-0.6C197.4,34.8,197.5,34.2,197.5,33.1"/>
			</g>
		</g>
	</g>
</g>
</svg>
