<?xml version="1.0" encoding="utf-8"?>
<!-- Generator: Adobe Illustrator 22.0.1, SVG Export Plug-In . SVG Version: 6.00 Build 0)  -->
<svg version="1.1" id="Layer_1" xmlns="http://www.w3.org/2000/svg" xmlns:xlink="http://www.w3.org/1999/xlink" x="0px" y="0px"
	 viewBox="0 0 531.7 143.9" style="enable-background:new 0 0 531.7 143.9;" xml:space="preserve">
<style type="text/css">
	.st0{fill:#AAA9A9;}
	.st1{fill:#7C7C7C;}
	.st2{fill:#FEFEFE;}
</style>
<g id="Layer_x0020_1">
	<g id="_2822977052880">
		<polygon class="st0" points="260.4,52.6 260.7,49.5 260.6,49.5 259.6,52 256.3,57.8 255.3,57.8 251.8,52 250.8,49.5 250.7,49.5 
			251.1,52.6 251.1,60.7 248.2,60.7 248.2,45.1 251,45.1 255.2,52.2 255.9,54 256,54 256.7,52.2 260.7,45.1 263.4,45.1 263.4,60.7 
			260.4,60.7 		"/>
		<polygon class="st0" points="266.1,45.1 275.4,45.1 275.4,47.8 269.2,47.8 269.2,51.5 274.8,51.5 274.8,54.2 269.2,54.2 269.2,58 
			275.5,58 275.5,60.7 266.1,60.7 		"/>
		<polygon class="st0" points="281.7,52.6 280.4,50.1 280.3,50.1 280.7,52.6 280.7,60.7 277.8,60.7 277.8,45 280,45 285.9,53.3 
			287.1,55.7 287.2,55.7 286.9,53.3 286.9,45.1 289.8,45.1 289.8,60.8 287.5,60.8 		"/>
		<polygon class="st0" points="303.6,47.8 299,47.8 299,60.7 295.9,60.7 295.9,47.8 291.4,47.8 291.4,45.1 303.6,45.1 		"/>
		<path class="st0" d="M307,52.9c0,0.8,0.1,1.5,0.2,2.2c0.1,0.7,0.4,1.2,0.6,1.7c0.3,0.5,0.6,0.9,1.1,1.1c0.4,0.3,0.9,0.4,1.6,0.4
			c1.1,0,1.9-0.4,2.5-1.3c0.6-0.8,0.9-2.2,0.9-4.1c0-0.8,0-1.5-0.2-2.1c-0.1-0.7-0.3-1.2-0.6-1.7c-0.3-0.5-0.6-0.9-1.1-1.2
			c-0.4-0.3-1-0.4-1.6-0.4c-1.1,0-1.9,0.4-2.5,1.3C307.3,49.7,307,51.1,307,52.9z M303.8,52.9c0-2.6,0.6-4.6,1.7-6
			c1.2-1.4,2.8-2.1,4.9-2.1c1.1,0,2.1,0.2,2.9,0.6c0.8,0.4,1.5,0.9,2.1,1.6c0.5,0.7,1,1.6,1.2,2.6c0.3,1,0.4,2.1,0.4,3.3
			c0,2.6-0.6,4.6-1.7,6c-1.2,1.4-2.8,2.1-4.9,2.1c-1.1,0-2.1-0.2-3-0.6c-0.8-0.4-1.5-0.9-2.1-1.7c-0.5-0.7-0.9-1.6-1.2-2.6
			C303.9,55.2,303.8,54.1,303.8,52.9z"/>
		<polygon class="st0" points="323.2,52.6 321.9,50.1 321.8,50.1 322.2,52.6 322.2,60.7 319.3,60.7 319.3,45 321.5,45 327.4,53.3 
			328.6,55.7 328.7,55.7 328.3,53.3 328.3,45.1 331.3,45.1 331.3,60.8 329,60.8 		"/>
		<polygon class="st0" points="339.6,45.1 348.9,45.1 348.9,47.8 342.7,47.8 342.7,51.5 348.3,51.5 348.3,54.2 342.7,54.2 342.7,58 
			349,58 349,60.7 339.6,60.7 		"/>
		<polygon class="st0" points="355.2,52.6 353.9,50.1 353.8,50.1 354.2,52.6 354.2,60.7 351.3,60.7 351.3,45 353.5,45 359.4,53.3 
			360.6,55.7 360.7,55.7 360.4,53.3 360.4,45.1 363.3,45.1 363.3,60.8 361,60.8 		"/>
		<polygon class="st0" points="365.9,45.1 375.2,45.1 375.2,47.8 369,47.8 369,51.5 374.7,51.5 374.7,54.2 369,54.2 369,58 
			375.3,58 375.3,60.7 365.9,60.7 		"/>
		<path class="st0" d="M382.3,47.6c-0.3,0-0.6,0-0.9,0c-0.3,0-0.5,0-0.7,0.1v4.5h1.3c0.9,0,1.5-0.2,2-0.6c0.5-0.4,0.8-1,0.8-1.9
			c0-0.7-0.2-1.2-0.6-1.6C383.7,47.8,383.1,47.6,382.3,47.6z M377.6,45.2c0.3-0.1,0.7-0.1,1.1-0.2c0.4-0.1,0.8-0.1,1.2-0.1
			c0.4,0,0.8,0,1.2-0.1c0.4,0,0.7,0,1,0c0.7,0,1.5,0.1,2.2,0.2c0.7,0.1,1.3,0.4,1.9,0.7c0.6,0.3,1,0.8,1.3,1.4
			c0.3,0.6,0.5,1.3,0.5,2.2c0,1.3-0.3,2.3-0.9,3.1c-0.6,0.8-1.4,1.4-2.4,1.7l1.1,0.7l3.6,6h-3.5l-3.6-6.1l-1.6-0.3v6.4h-3.1V45.2z"
			/>
		<path class="st0" d="M395.8,52.6h5.8v7c-0.6,0.5-1.4,0.9-2.3,1.2c-0.9,0.2-1.7,0.4-2.6,0.4c-1,0-1.9-0.2-2.8-0.5
			c-0.9-0.3-1.6-0.8-2.2-1.5c-0.6-0.7-1.1-1.5-1.5-2.5c-0.4-1-0.5-2.3-0.5-3.7c0-1.5,0.2-2.7,0.6-3.8c0.4-1,1-1.9,1.7-2.5
			c0.7-0.7,1.5-1.1,2.3-1.4c0.9-0.3,1.7-0.4,2.6-0.4c0.9,0,1.7,0.1,2.4,0.2c0.7,0.1,1.2,0.3,1.6,0.4l-0.6,2.6
			c-0.4-0.2-0.8-0.3-1.2-0.4c-0.5-0.1-1.1-0.1-1.8-0.1c-0.6,0-1.2,0.1-1.8,0.3c-0.5,0.2-1,0.5-1.4,1c-0.4,0.4-0.7,1-0.9,1.7
			c-0.2,0.7-0.3,1.5-0.3,2.5c0,0.9,0.1,1.7,0.3,2.4c0.2,0.7,0.5,1.2,0.9,1.7c0.4,0.4,0.8,0.8,1.3,1c0.5,0.2,1,0.3,1.6,0.3
			c0.4,0,0.8-0.1,1.1-0.2c0.4-0.1,0.7-0.2,0.9-0.4v-2.9l-3.4-0.4V52.6z"/>
		<polygon class="st0" points="407.7,54.9 402.5,45.1 406.2,45.1 409,51 409.4,52.6 409.5,52.6 409.8,50.9 412.6,45.1 415.9,45.1 
			410.7,54.9 410.7,60.7 407.7,60.7 		"/>
		<path class="st0" d="M259.6,85.5c-0.6,0.8-1.3,1.4-2.1,1.8c-0.8,0.4-1.7,0.6-2.7,0.6c-1.9,0-3.4-0.7-4.6-2c-1.4-1.6-2-3.7-2-6.5
			c0-2.8,0.7-4.9,2-6.4c1.3-1.5,2.9-2.2,4.8-2.2c1.1,0,2,0.2,2.9,0.7c0.9,0.4,1.7,1.1,2.2,1.9c0.4,0.6,0.8,1.4,1,2.4l-1.7,0.4
			c-0.2-0.7-0.4-1.3-0.7-1.7c-0.4-0.7-0.9-1.2-1.6-1.6c-0.6-0.4-1.3-0.6-2.1-0.6c-1.4,0-2.6,0.6-3.6,1.8c-1,1.2-1.5,3-1.5,5.2
			c0,1.4,0.2,2.6,0.6,3.8c0.4,1.2,1.1,2,1.8,2.6c0.8,0.6,1.6,0.8,2.6,0.8c0.7,0,1.4-0.2,2.1-0.5c0.6-0.3,1.2-0.7,1.5-1.2
			c0.4-0.5,0.6-1,0.8-1.5c0.1-0.5,0.2-1.2,0.2-2h-4.1v-1.6h5.7v8h-1.6V85.5z"/>
		<path class="st0" d="M267,72.4v6.2h3.5c0.9,0,1.7-0.1,2.6-0.4c0.6-0.2,1.1-0.5,1.4-1c0.3-0.5,0.5-1,0.5-1.7c0-0.9-0.3-1.6-1-2.2
			c-0.6-0.6-1.6-0.9-2.9-0.9H267z M265.4,71h5.1c1.5,0,2.6,0.2,3.5,0.5c0.9,0.3,1.6,0.9,2.1,1.6c0.5,0.7,0.8,1.5,0.8,2.4
			c0,0.9-0.3,1.8-0.9,2.5c-0.6,0.7-1.5,1.3-2.7,1.7l4,7.8h-1.7l-3.9-7.5H267v7.5h-1.6V71z"/>
		<path class="st0" d="M285.5,86.4c1.4,0,2.6-0.6,3.7-1.8c1-1.2,1.5-2.9,1.5-5.2c0-2.4-0.6-4.3-1.7-5.7c-0.9-1.1-2-1.6-3.4-1.6
			c-1.4,0-2.5,0.6-3.6,1.8c-1,1.2-1.5,3-1.5,5.4c0,2.4,0.5,4.1,1.5,5.3C283,85.8,284.1,86.4,285.5,86.4z M285.6,87.9
			c-1.9,0-3.5-0.7-4.7-2.1c-1.5-1.6-2.2-3.8-2.2-6.4c0-1.6,0.3-3.2,0.9-4.6c0.6-1.4,1.4-2.4,2.5-3.1c1.1-0.7,2.3-1,3.6-1
			c1.1,0,2.1,0.3,3,0.8c0.9,0.5,1.6,1.1,2.1,1.9c0.5,0.8,1,1.7,1.2,2.7c0.3,1,0.4,2.1,0.4,3.2c0,1.2-0.2,2.3-0.5,3.3
			c-0.3,0.9-0.7,1.7-1.1,2.4c-0.4,0.6-0.9,1.1-1.3,1.5c-0.6,0.5-1.2,0.8-2,1.1C286.9,87.8,286.2,87.9,285.6,87.9z"/>
		<path class="st0" d="M296,71h1.6v10.8c0,1.4,0.4,2.4,1.2,3.2c0.8,0.8,1.8,1.2,3.2,1.2c1.1,0,1.9-0.2,2.6-0.5
			c0.7-0.4,1.2-0.9,1.5-1.6c0.3-0.7,0.5-1.5,0.5-2.3V71h1.6v10.8c0,1.8-0.5,3.3-1.6,4.4c-1.1,1.1-2.5,1.6-4.3,1.6
			c-1.5,0-2.7-0.3-3.6-0.9c-0.9-0.6-1.6-1.4-2-2.3c-0.4-0.9-0.5-1.8-0.5-2.6V71z"/>
		<path class="st0" d="M314.2,72.4v6.2h3.5c1.6,0,2.8-0.3,3.5-0.9c0.7-0.6,1-1.3,1-2.3c0-1.1-0.5-1.9-1.4-2.4
			c-0.7-0.4-1.8-0.7-3.3-0.7H314.2z M312.7,71h5.5c1.9,0,3.4,0.4,4.4,1.3s1.5,1.9,1.5,3.1c0,0.7-0.1,1.3-0.4,1.8
			c-0.3,0.5-0.7,1-1.2,1.4c-0.5,0.4-1.2,0.8-1.9,1c-0.7,0.2-1.6,0.4-2.7,0.4h-3.6v7.5h-1.6V71z"/>
	</g>
	<g id="_2822976990640">
		<polygon class="st1" points="115.9,112.5 223.7,112.5 223.7,41.1 115.9,41.1 		"/>
	</g>
	<g id="_2822976991184">
		<polygon class="st2" points="120.8,107.2 228.6,107.2 228.6,35.7 120.8,35.7 		"/>
	</g>
	<g id="_2822976989968">
		<polygon class="st1" points="126.6,102.8 234.4,102.8 234.4,31.3 126.6,31.3 		"/>
	</g>
	<path class="st2" d="M144.6,48.2c0,0,0.1,0,0.1,0c0,2.2,0,4.4,0,6.6c0,10.9,0,21.9,0,32.8c0,0-0.1,0-0.1,0V48.2z"/>
	<path class="st2" d="M144.7,87.6c0-10.9,0-21.9,0-32.8c0-2.2,0-4.4,0-6.6c3.2-0.9,6.4-1.5,9.6-1.9c2.6-0.3,5.2-0.5,7.9-0.4
		c3.9,0.1,7.4,1.1,10.5,3.5c0.4,0.3,0.6,0.1,0.9-0.1c5.5-3.5,11.4-4.3,17.7-2.6c1.2,0.3,2.1,0.4,3.2-0.1c2.4-0.9,4.9-1.1,7.4-1.1
		c6.2,0,12.3,0,18.5,0c0.6,0,0.7,0.2,0.7,0.7c0,2.5,0,5,0,7.5c0,0.6-0.2,0.7-0.7,0.7c-5.6,0-11.1,0-16.7,0c-1.1,0-2.3,0.1-3.4,0.2
		c-0.4,0.1-0.6,0.2-0.4,0.7c0.7,2.2,0.9,4.4,1.1,6.7c0,0.5,0.1,0.7,0.7,0.7c6.3,0,12.5,0,18.8,0c0.5,0,0.7,0.1,0.7,0.7
		c0,2.5,0,5,0,7.5c0,0.6-0.2,0.7-0.7,0.7c-5.5,0-11.1,0-16.7,0c-0.8,0-1.5,0.1-2.2,0.1c-0.4,0-0.5,0.1-0.5,0.5c0,2.4,0,4.8,0,7.2
		c0,0.6,0.4,0.5,0.7,0.5c4.5,0,9,0,13.5,0c1.8,0,3.5,0,5.3,0c0.5,0,0.6,0.1,0.6,0.6c0,2.2,0,4.4,0,6.7c0,0.5-0.1,0.6-0.6,0.6
		c-10.2,0-20.4,0-30.6,0c-0.6,0-0.5-0.4-0.5-0.7c0-6.9,0-13.8,0-20.7c0-2-0.1-4-0.6-6c-0.8-3.1-2.9-4.8-6.7-4.3
		c-1.4,0.2-2.7,0.6-4,1.3c-0.2,0.1-0.4,0.2-0.3,0.6c0.7,2.4,0.8,4.9,0.8,7.3c0,7.3,0,14.5,0,21.8c0,0.6-0.2,0.8-0.8,0.8
		c-3.4,0-6.8,0-10.1,0c-0.6,0-0.7-0.2-0.7-0.7c0-7.2,0-14.5,0-21.8c0-1.8-0.2-3.7-0.7-5.4c-0.8-2.6-2.4-3.9-5.2-4
		c-1.5,0-3,0.2-4.5,0.3c-0.6,0.1-0.5,0.5-0.5,0.8c0,8,0,15.9,0,23.9c0,2.1,0,4.2,0,6.2c0,0.4,0,0.6-0.5,0.6
		C152,87.6,148.4,87.6,144.7,87.6z"/>
</g>
</svg>
